# Blender v2.80 (sub 75) OBJ File: 'modelblend.blend'
# www.blender.org
mtllib windows.mtl
o shuttle.002
v 1.467737 3.693899 9.160661
v 1.268317 3.706602 9.488451
v 1.195421 3.758674 9.527220
v 1.560108 3.875669 8.780590
v 1.523988 3.931715 8.805767
v 0.316946 4.313628 9.655322
v 0.828027 4.009746 9.712813
v 0.782754 4.308770 9.455563
v 0.764956 4.048908 9.744530
v 0.229512 4.087852 9.927337
v 1.043072 4.260036 9.243219
v 0.962048 3.944960 9.660114
v 1.308834 3.746904 9.387726
v 1.161369 4.236858 9.085358
v 1.155605 4.188527 9.152592
v 1.416795 3.677238 9.262046
v 0.669890 4.332934 9.511396
v 0.713733 4.283628 9.539640
v 0.515351 4.357331 9.565788
v 1.098160 4.208920 9.222337
v 1.208202 3.713326 9.583446
v 0.259981 4.166525 9.832544
v 0.761035 4.286549 9.496844
v 0.883133 4.292192 9.383336
v 0.266598 3.885739 10.138032
v 1.243214 3.914749 9.336782
v 0.763686 3.892261 9.901853
v 1.234513 4.233168 8.973377
v 1.295081 4.185328 8.943425
v 1.355448 3.755124 9.288944
v 1.383772 3.705243 9.290054
v 0.747463 4.135775 9.674558
v 0.352217 4.335781 9.623207
v 0.221945 3.896139 10.182409
v 1.162234 4.089343 9.272775
v 1.445668 3.678614 9.212423
v 0.716493 3.898948 9.973203
v 0.457853 3.919579 10.047161
v 0.175517 3.946273 10.095322
v 0.948245 3.819291 9.802502
v 0.793502 3.911606 9.858717
v 1.012439 4.216156 9.344699
v 0.856241 3.892903 9.803769
v 1.311450 4.218880 8.867610
v 1.276641 4.234469 8.901832
v 1.257183 3.994967 9.220182
v 1.498153 3.718407 9.077663
v 1.575221 3.791070 8.831589
vt 0.179283 0.605281
vt 0.180894 0.609101
vt 0.180227 0.610734
vt 0.176985 0.609332
vt 0.177238 0.599702
vt 0.166907 0.600667
vt 0.171153 0.594716
vt 0.169356 0.593267
vt 0.162358 0.596652
vt 0.172392 0.593052
vt 0.175610 0.594339
vt 0.175750 0.611762
vt 0.165223 0.602737
vt 0.162317 0.599004
vt 0.188849 0.609876
vt 0.185271 0.609994
vt 0.183122 0.608450
vt 0.180963 0.602265
vt 0.189805 0.608347
vt 0.173442 0.612291
vt 0.172123 0.611581
vt 0.192228 0.609419
vt 0.191134 0.609917
vt 0.178766 0.594602
vt 0.178730 0.593008
vt 0.179625 0.592114
vt 0.181211 0.592158
vt 0.182865 0.592646
vt 0.185517 0.593429
vt 0.194204 0.600244
vt 0.193379 0.595751
vt 0.195008 0.598454
vt 0.154541 0.599857
vt 0.156903 0.599197
vt 0.159183 0.598984
vt 0.160561 0.599602
vt 0.164210 0.603989
vt 0.166445 0.606764
vt 0.170756 0.611488
vt 0.171658 0.613064
vt 0.169921 0.613843
vt 0.168086 0.613154
vt 0.167060 0.612447
vt 0.161398 0.607747
vt 0.158369 0.605233
vt 0.153002 0.600709
vt 0.150219 0.599108
vt 0.151637 0.598775
vn 0.6844 0.5104 0.5207
vn 0.6927 0.5619 0.4521
vn 0.6511 0.6051 0.4582
vn 0.6101 0.5976 0.5202
vn 0.6862 0.4870 0.5403
vn 0.6026 0.5678 0.5608
vn 0.6860 0.5100 0.5189
vn 0.6750 0.5574 0.4834
vn 0.6001 0.5861 0.5444
vn 0.7030 0.4722 0.5317
vn 0.5337 0.6162 0.5792
vn 0.5243 0.6031 0.6012
vn 0.5167 0.6094 0.6014
vn 0.6979 0.5594 0.4473
vn 0.7034 0.5429 0.4588
vn 0.7571 0.4815 0.4416
vn 0.7338 0.5311 0.4236
vn 0.5296 0.5987 0.6010
vn 0.7441 0.5368 0.3977
vn 0.6805 0.6051 0.4132
vn 0.7725 0.4521 0.4459
vn 0.7853 0.4465 0.4290
vn 0.8079 0.4285 0.4045
vn 0.8462 0.3773 0.3762
vn 0.2680 0.7104 0.6508
usemtl Material.001
s 1
f 35/1/1 20/2/2 11/3/3 42/4/4
f 26/5/5 35/1/1 42/4/4 12/6/6 3/7/7
f 21/8/8 3/7/7 12/6/6 40/9/9
f 2/10/10 13/11/10 26/5/5 3/7/7
f 42/4/4 11/3/3 24/12/11
f 7/13/12 43/14/13 40/9/9 12/6/6
f 28/15/14 14/16/15 15/17/15 46/18/16 29/19/17
f 8/20/18 23/21/18 7/13/12 12/6/6 42/4/4 24/12/11
f 44/22/19 45/23/20 28/15/14 29/19/17
f 30/24/21 31/25/21 16/26/21 36/27/21 1/28/21 47/29/22 46/18/16
f 29/19/17 5/30/23 44/22/19
f 29/19/17 46/18/16 47/29/22 5/30/23
f 47/29/22 48/31/24 4/32/24 5/30/23
f 38/33/25 37/34/25 27/35/25 41/36/25 9/37/25 32/38/25 18/39/25 17/40/25 19/41/25 33/42/25 6/43/25 22/44/25 10/45/25 39/46/25 34/47/25 25/48/25
o shuttle.003
v 1.268317 3.706602 9.488451
v 1.195421 3.758674 9.527220
v 1.208202 3.713326 9.583446
vt 0.169356 0.593267
vt 0.172392 0.593052
vt 0.171153 0.594716
vn 0.6625 0.6495 0.3733
usemtl Material.001
s 1
f 51/49/26 49/50/26 50/51/26
